<svg xmlns="http://www.w3.org/2000/svg" fill="none" viewBox="0 0 924 274"><mask height="274" width="923" y="0" x="0" maskUnits="userSpaceOnUse" style="mask-type:luminance" id="mask0_1886_13924"><path fill="white" d="M922.359 0H0V273.863H922.359V0Z"/></mask><g mask="url(#mask0_1886_13924)"><path fill="white" d="M888.2 0H34.1616C15.2946 0 0 15.3266 0 34.233V239.63C0 258.536 15.2946 273.863 34.1616 273.863H888.2C907.066 273.863 922.359 258.536 922.359 239.63V34.233C922.359 15.3266 907.066 0 888.2 0Z"/><path fill="black" d="M888.2 5.47726C895.809 5.47726 903.109 8.50685 908.49 13.8996C913.871 19.2923 916.894 26.6064 916.894 34.233V239.63C916.894 247.257 913.871 254.571 908.49 259.963C903.109 265.356 895.809 268.386 888.2 268.386H34.1616C26.5509 268.386 19.2521 265.356 13.8706 259.963C8.48911 254.571 5.46584 247.257 5.46584 239.63V34.233C5.46584 26.6064 8.48911 19.2923 13.8706 13.8996C19.2521 8.50685 26.5509 5.47726 34.1616 5.47726H888.2ZM888.2 0H34.1616C25.1013 0 16.4122 3.60666 10.0057 10.0266C3.59914 16.4465 0 25.1538 0 34.233V239.63C0 248.709 3.59914 257.417 10.0057 263.837C16.4122 270.256 25.1013 273.863 34.1616 273.863H888.2C897.257 273.863 905.947 270.256 912.356 263.837C918.761 257.417 922.359 248.709 922.359 239.63V34.233C922.359 25.1538 918.761 16.4465 912.356 10.0266C905.947 3.60666 897.257 0 888.2 0Z"/><path stroke-miterlimit="10" stroke-width="0.411304" stroke="black" fill="black" d="M323.988 70.1091C324.102 72.6198 323.706 75.1273 322.822 77.4806C321.942 79.8342 320.597 81.9843 318.862 83.8021C316.923 85.8102 314.582 87.3849 311.991 88.4233C309.4 89.4613 306.62 89.9397 303.833 89.827C301.029 89.8896 298.243 89.375 295.645 88.3152C293.048 87.2555 290.696 85.6729 288.733 83.6651C284.752 79.5844 282.523 74.1041 282.523 68.3973C282.523 62.6906 284.752 57.2103 288.733 53.1296C291.777 50.1489 295.632 48.1365 299.814 47.3447C303.995 46.5529 308.317 47.0172 312.237 48.6791C314.701 49.6942 316.898 51.2635 318.658 53.2666L315.038 56.895C313.681 55.2573 311.962 53.9588 310.017 53.1031C308.072 52.2474 305.954 51.8578 303.833 51.9655C301.155 51.9841 298.522 52.6597 296.165 53.9333C293.807 55.2069 291.797 57.0399 290.31 59.2716C288.822 61.5036 287.903 64.0666 287.633 66.7366C287.362 69.4067 287.748 72.1023 288.757 74.5885C289.766 77.0743 291.368 79.2748 293.422 80.9972C295.475 82.72 297.919 83.9124 300.539 84.4701C303.158 85.0276 305.874 84.934 308.449 84.1971C311.025 83.4598 313.381 82.1021 315.311 80.242C317.398 77.9489 318.608 74.99 318.727 71.8891H303.833V66.9596H323.715C323.869 68.0027 323.96 69.0546 323.988 70.1091Z"/><path stroke-miterlimit="10" stroke-width="0.411304" stroke="black" fill="black" d="M355.276 52.9925H336.83V66.0009H353.638V70.9307H336.83V83.9391H355.276V89.0056H331.5V47.926H355.276V52.9925Z"/><path stroke-miterlimit="10" stroke-width="0.411304" stroke="black" fill="black" d="M377.692 89.0056H372.431V52.9925H360.953V47.926H389.443V52.9925H377.692V89.0056Z"/><path stroke-miterlimit="10" stroke-width="0.411304" stroke="black" fill="black" d="M409.523 89.0056V47.926H414.785V89.0056H409.523Z"/><path stroke-miterlimit="10" stroke-width="0.411304" stroke="black" fill="black" d="M438.153 89.0056H432.892V52.9925H421.414V47.926H449.561V52.9925H438.153V89.0056Z"/><path stroke-miterlimit="10" stroke-width="0.411304" stroke="black" fill="black" d="M502.928 83.6652C500.955 85.6443 498.61 87.2143 496.033 88.2854C493.453 89.3566 490.687 89.908 487.896 89.908C485.105 89.908 482.34 89.3566 479.762 88.2854C477.182 87.2143 474.838 85.6443 472.867 83.6652C469.004 79.5508 466.852 74.1146 466.852 68.4658C466.852 62.817 469.004 57.3811 472.867 53.2663C474.797 51.2318 477.132 49.6256 479.722 48.5526C482.311 47.4793 485.096 46.9628 487.896 47.0362C490.693 46.9917 493.472 47.5218 496.055 48.5932C498.642 49.6647 500.98 51.2551 502.928 53.2663C504.893 55.2691 506.436 57.6456 507.47 60.2565C508.501 62.8671 509 65.6584 508.941 68.4658C509.029 71.277 508.542 74.0765 507.508 76.6908C506.474 79.3055 504.915 81.6792 502.928 83.6652ZM476.761 80.2421C478.216 81.7201 479.948 82.8936 481.862 83.6945C483.773 84.4957 485.825 84.908 487.896 84.908C489.967 84.908 492.02 84.4957 493.934 83.6945C495.844 82.8936 497.579 81.7201 499.034 80.2421C501.982 77.0319 503.617 72.8284 503.617 68.4658C503.617 64.1032 501.982 59.9 499.034 56.6898C497.579 55.2117 495.844 54.0383 493.934 53.2371C492.02 52.4362 489.967 52.0236 487.896 52.0236C485.825 52.0236 483.773 52.4362 481.862 53.2371C479.948 54.0383 478.216 55.2117 476.761 56.6898C473.813 59.9 472.176 64.1032 472.176 68.4658C472.176 72.8284 473.813 77.0319 476.761 80.2421Z"/><path stroke-miterlimit="10" stroke-width="0.411304" stroke="black" fill="black" d="M516.383 89.0056V47.926H522.738L542.689 79.8996V71.9574V47.926H547.95V89.0056H542.484L521.644 55.5259V63.3995V89.0056H516.383Z"/><path fill="black" d="M465.553 148.913C459.799 148.927 454.176 150.651 449.396 153.867C444.619 157.083 440.897 161.647 438.707 166.981C436.516 172.316 435.954 178.182 437.091 183.837C438.226 189.492 441.011 194.682 445.09 198.752C449.169 202.821 454.365 205.587 460.012 206.699C465.66 207.811 471.512 207.219 476.823 204.999C482.138 202.779 486.673 199.031 489.86 194.227C493.047 189.423 494.741 183.78 494.728 178.011C494.785 174.163 494.065 170.343 492.619 166.778C491.171 163.214 489.021 159.978 486.299 157.263C483.577 154.548 480.337 152.409 476.773 150.975C473.209 149.54 469.394 148.839 465.553 148.913ZM465.553 195.675C462.027 195.923 458.504 195.1 455.449 193.316C452.394 191.531 449.943 188.867 448.418 185.668C446.894 182.471 446.366 178.887 446.9 175.383C447.435 171.879 449.009 168.618 451.42 166.023C453.827 163.428 456.961 161.619 460.408 160.831C463.856 160.044 467.461 160.314 470.755 161.607C474.048 162.9 476.877 165.156 478.873 168.081C480.871 171.007 481.943 174.467 481.953 178.011C482.063 180.257 481.723 182.502 480.953 184.614C480.183 186.726 478.998 188.662 477.471 190.309C475.943 191.955 474.102 193.278 472.056 194.2C470.007 195.121 467.797 195.623 465.553 195.675ZM401.879 148.913C396.121 148.927 390.499 150.651 385.718 153.867C380.941 157.083 377.22 161.647 375.029 166.981C372.839 172.316 372.276 178.182 373.414 183.837C374.549 189.492 377.333 194.682 381.413 198.752C385.492 202.821 390.687 205.587 396.335 206.699C401.983 207.811 407.835 207.219 413.146 204.999C418.461 202.779 422.999 199.031 426.186 194.227C429.373 189.423 431.063 183.78 431.051 178.011C431.107 174.163 430.391 170.343 428.942 166.778C427.493 163.214 425.343 159.978 422.622 157.263C419.9 154.548 416.66 152.409 413.096 150.975C409.532 149.54 405.716 148.839 401.879 148.913ZM401.879 195.675C398.349 195.923 394.829 195.1 391.771 193.316C388.717 191.531 386.268 188.867 384.741 185.668C383.217 182.471 382.689 178.887 383.223 175.383C383.757 171.879 385.332 168.618 387.742 166.023C390.15 163.428 393.283 161.619 396.731 160.831C400.179 160.044 403.783 160.314 407.077 161.607C410.371 162.9 413.199 165.156 415.198 168.081C417.194 171.007 418.266 174.467 418.275 178.011C418.385 180.257 418.046 182.502 417.276 184.614C416.506 186.726 415.321 188.662 413.793 190.309C412.266 191.955 410.424 193.278 408.378 194.2C406.332 195.121 404.12 195.623 401.879 195.675ZM326.177 157.882V170.206H355.691C355.229 176.01 352.822 181.488 348.859 185.748C345.898 188.771 342.337 191.137 338.406 192.694C334.474 194.251 330.263 194.963 326.039 194.785C317.342 194.785 309 191.323 302.849 185.16C296.699 178.997 293.244 170.638 293.244 161.922C293.244 153.206 296.699 144.847 302.849 138.683C309 132.52 317.342 129.058 326.039 129.058C334.377 128.934 342.429 132.107 348.45 137.89L357.125 129.195C353.055 125.159 348.218 121.978 342.903 119.838C337.589 117.699 331.903 116.643 326.177 116.734C320.102 116.497 314.043 117.492 308.361 119.657C302.68 121.823 297.494 125.116 293.112 129.339C288.732 133.562 285.247 138.627 282.866 144.231C280.485 149.836 279.258 155.865 279.258 161.956C279.258 168.047 280.485 174.076 282.866 179.68C285.247 185.285 288.732 190.35 293.112 194.573C297.494 198.796 302.68 202.088 308.361 204.254C314.043 206.42 320.102 207.414 326.177 207.177C332.019 207.411 337.849 206.404 343.277 204.221C348.705 202.038 353.611 198.729 357.671 194.511C364.847 186.613 368.671 176.226 368.332 165.55C368.354 162.981 368.15 160.415 367.716 157.882H326.177ZM635.748 167.467C633.966 162.214 630.632 157.627 626.191 154.314C621.75 151.001 616.41 149.117 610.879 148.913C607.139 148.906 603.44 149.667 600.008 151.149C596.576 152.631 593.483 154.803 590.922 157.53C588.36 160.257 586.387 163.482 585.117 167.004C583.847 170.527 583.316 174.273 583.549 178.011C583.489 184.261 585.45 190.362 589.137 195.403C592.826 200.444 598.04 204.155 604.005 205.98C609.971 207.806 616.366 207.649 622.234 205.532C628.102 203.416 633.13 199.454 636.565 194.237L626.659 187.391C625.182 189.858 623.089 191.895 620.584 193.3C618.079 194.705 615.251 195.429 612.381 195.401C609.421 195.524 606.491 194.746 603.977 193.17C601.466 191.593 599.489 189.293 598.307 186.569L637.181 170.48L635.748 167.467ZM596.12 177.19C595.982 175.063 596.268 172.93 596.962 170.915C597.657 168.901 598.744 167.046 600.165 165.458C601.582 163.87 603.305 162.583 605.225 161.67C607.148 160.757 609.232 160.237 611.357 160.141C613.557 160.007 615.75 160.526 617.658 161.635C619.566 162.743 621.106 164.391 622.083 166.372L596.12 177.19ZM564.553 205.397H577.332V119.815H564.553V205.397ZM543.647 155.417H543.169C541.261 153.239 538.904 151.5 536.264 150.318C533.621 149.136 530.758 148.541 527.867 148.571C520.399 148.934 513.359 152.161 508.202 157.585C503.044 163.008 500.169 170.212 500.169 177.703C500.169 185.194 503.044 192.398 508.202 197.821C513.359 203.245 520.399 206.472 527.867 206.835C530.761 206.893 533.637 206.31 536.28 205.126C538.926 203.943 541.28 202.188 543.169 199.989H543.647V204.165C543.647 215.325 537.704 221.282 528.137 221.282C524.944 221.211 521.842 220.191 519.224 218.35C516.609 216.509 514.601 213.931 513.45 210.943L502.381 215.53C504.427 220.681 507.985 225.087 512.583 228.168C517.184 231.249 522.605 232.858 528.137 232.784C543.1 232.784 555.467 223.952 555.467 202.453V150.625H543.647V155.417ZM528.957 195.675C524.482 195.395 520.28 193.416 517.209 190.141C514.139 186.866 512.429 182.54 512.429 178.045C512.429 173.551 514.139 169.225 517.209 165.95C520.28 162.674 524.482 160.695 528.957 160.415C531.148 160.51 533.294 161.045 535.271 161.988C537.248 162.931 539.017 164.262 540.469 165.904C541.921 167.546 543.031 169.464 543.732 171.544C544.429 173.624 544.703 175.823 544.536 178.011C544.722 180.207 544.461 182.417 543.773 184.509C543.081 186.602 541.975 188.532 540.52 190.183C539.061 191.834 537.286 193.172 535.299 194.116C533.313 195.06 531.157 195.591 528.957 195.675ZM695.598 119.815H664.989V205.397H677.765V172.944H695.598C699.24 173.207 702.895 172.714 706.337 171.498C709.781 170.282 712.937 168.368 715.608 165.876C718.283 163.383 720.414 160.366 721.872 157.012C723.327 153.657 724.081 150.038 724.081 146.38C724.081 142.722 723.327 139.103 721.872 135.748C720.414 132.394 718.283 129.377 715.608 126.884C712.937 124.392 709.781 122.478 706.337 121.262C702.895 120.045 699.24 119.553 695.598 119.815ZM695.598 160.895H677.765V131.728H695.871C697.791 131.728 699.693 132.107 701.465 132.843C703.241 133.58 704.853 134.659 706.211 136.02C707.569 137.38 708.644 138.995 709.379 140.773C710.115 142.551 710.492 144.456 710.492 146.38C710.492 148.304 710.115 150.209 709.379 151.987C708.644 153.764 707.569 155.38 706.211 156.74C704.853 158.101 703.241 159.18 701.465 159.916C699.693 160.653 697.791 161.031 695.871 161.031L695.598 160.895ZM774.443 148.639C769.791 148.352 765.155 149.437 761.111 151.761C757.069 154.086 753.794 157.547 751.691 161.716L762.965 166.44C764.103 164.382 765.812 162.699 767.887 161.593C769.961 160.488 772.309 160.007 774.647 160.21C776.269 160.02 777.912 160.156 779.481 160.609C781.052 161.063 782.513 161.825 783.786 162.851C785.059 163.877 786.112 165.147 786.891 166.586C787.668 168.025 788.152 169.605 788.312 171.233V172.054C784.204 169.89 779.631 168.762 774.989 168.768C762.827 168.768 750.393 175.615 750.393 188.076C750.513 190.724 751.163 193.322 752.304 195.713C753.445 198.105 755.057 200.242 757.037 201.999C759.021 203.755 761.334 205.094 763.842 205.937C766.353 206.779 769.002 207.108 771.642 206.904C774.848 207.081 778.044 206.401 780.901 204.934C783.758 203.466 786.175 201.263 787.903 198.551H788.312V205.397H800.61V172.465C800.61 157.471 789.267 148.776 774.716 148.776L774.443 148.639ZM772.871 195.538C768.704 195.538 762.896 193.416 762.896 188.281C762.896 181.434 770.137 179.107 776.561 179.107C780.618 179.006 784.632 179.999 788.177 181.982C787.746 185.7 785.986 189.137 783.224 191.654C780.461 194.172 776.878 195.601 773.145 195.675L772.871 195.538ZM845.43 150.625L830.81 187.733H830.398L815.231 150.625H801.565L824.32 202.522L811.337 231.346H824.659L859.642 150.625H845.43ZM730.647 205.397H743.357V119.815H730.647V205.397Z"/><path fill="url(#paint0_linear_1886_13924)" d="M71.3266 51.6231C69.0751 54.2907 67.9264 57.7198 68.1153 61.2084V212.655C67.883 216.149 69.0371 219.594 71.3266 222.24L71.8047 222.787L156.457 137.959V135.905L71.8047 51.1438L71.3266 51.6231Z"/><path fill="url(#paint1_linear_1886_13924)" d="M184.473 166.235L156.461 137.959V135.905L184.473 107.628L185.088 108.039L218.635 127.072C228.2 132.481 228.2 141.382 218.635 146.859L185.225 165.893L184.473 166.235Z"/><path fill="url(#paint2_linear_1886_13924)" d="M185.291 165.824L156.458 136.932L71.3281 222.24C73.2588 223.962 75.73 224.953 78.3131 225.04C80.8962 225.128 83.4288 224.306 85.471 222.719L185.291 165.824Z"/><path fill="url(#paint3_linear_1886_13924)" d="M185.291 108.039L85.471 51.2125C83.442 49.6029 80.9116 48.7617 78.3248 48.8369C75.7382 48.9122 73.2607 49.8986 71.3281 51.6232L156.458 136.932L185.291 108.039Z"/><path fill="black" d="M184.471 165.208L85.471 221.692C83.5029 223.18 81.1043 223.986 78.6387 223.986C76.1728 223.986 73.7745 223.18 71.8065 221.692L71.3281 222.171L71.8065 222.719C73.7745 224.208 76.1728 225.013 78.6387 225.013C81.1043 225.013 83.5029 224.208 85.471 222.719L185.291 165.824L184.471 165.208Z" opacity="0.2"/><path fill="black" d="M71.3265 221.282C69.1322 218.566 68.0567 215.112 68.3204 211.628V212.655C68.0881 216.149 69.2422 219.594 71.5318 222.24L72.0098 221.761L71.3265 221.282Z" opacity="0.12"/><path fill="black" d="M218.63 145.832L184.469 165.208L185.084 165.824L218.63 146.791C220.611 145.952 222.328 144.593 223.603 142.858C224.877 141.123 225.662 139.075 225.873 136.932C225.445 138.88 224.568 140.7 223.309 142.246C222.052 143.792 220.449 145.021 218.63 145.832Z" opacity="0.12"/><path fill="white" d="M85.4711 52.1709L218.633 128.031C220.451 128.842 222.054 130.071 223.312 131.617C224.57 133.163 225.448 134.983 225.875 136.932C225.664 134.788 224.88 132.74 223.605 131.005C222.331 129.27 220.613 127.911 218.633 127.072L85.4711 51.2125C75.9743 45.7351 68.1172 50.2539 68.1172 61.2085V62.2355C68.3221 51.2809 75.9743 46.7621 85.4711 52.1709Z" opacity="0.25"/></g><defs><linearGradient gradientUnits="userSpaceOnUse" y2="174.28" x2="34.0563" y1="59.6337" x1="148.941" id="paint0_linear_1886_13924"><stop stop-color="#00A0FF"/><stop stop-color="#00A1FF" offset="0.01"/><stop stop-color="#00BEFF" offset="0.26"/><stop stop-color="#00D2FF" offset="0.51"/><stop stop-color="#00DFFF" offset="0.76"/><stop stop-color="#00E3FF" offset="1"/></linearGradient><linearGradient gradientUnits="userSpaceOnUse" y2="136.932" x2="65.8646" y1="136.932" x1="231.138" id="paint1_linear_1886_13924"><stop stop-color="#FFE000"/><stop stop-color="#FFBD00" offset="0.41"/><stop stop-color="#FFA500" offset="0.78"/><stop stop-color="#FF9C00" offset="1"/></linearGradient><linearGradient gradientUnits="userSpaceOnUse" y2="308.113" x2="13.8172" y1="152.679" x1="169.645" id="paint2_linear_1886_13924"><stop stop-color="#FF3A44"/><stop stop-color="#C31162" offset="1"/></linearGradient><linearGradient gradientUnits="userSpaceOnUse" y2="70.6486" x2="119.436" y1="1.23247" x1="49.8747" id="paint3_linear_1886_13924"><stop stop-color="#32A071"/><stop stop-color="#2DA771" offset="0.07"/><stop stop-color="#15CF74" offset="0.48"/><stop stop-color="#06E775" offset="0.8"/><stop stop-color="#00F076" offset="1"/></linearGradient></defs></svg>