<svg xmlns="http://www.w3.org/2000/svg" fill="none" viewBox="0 0 924 310"><g clip-path="url(#clip0_1886_13920)"><path fill="black" d="M850.03 0.722451H74.0107C71.182 0.722451 68.3872 0.722451 65.5655 0.737879C63.2043 0.753307 60.8615 0.798047 58.4772 0.835845C53.2974 0.896775 48.1298 1.35244 43.0193 2.19889C37.9159 3.06377 32.9724 4.69436 28.3559 7.03551C23.7453 9.39657 19.5325 12.4645 15.8702 16.1279C12.1887 19.7807 9.1199 24.0029 6.78171 28.6321C4.43701 33.2525 2.81123 38.2038 1.96052 43.3147C1.10166 48.4191 0.639502 53.5823 0.578189 58.758C0.50645 61.1231 0.498736 63.4959 0.460938 65.8617V244.162C0.498736 246.558 0.50645 248.878 0.578189 251.275C0.63956 256.45 1.10172 261.612 1.96052 266.716C2.80895 271.83 4.43482 276.784 6.78171 281.406C9.11879 286.02 12.1881 290.226 15.8702 293.858C19.5186 297.538 23.7342 300.608 28.3559 302.951C32.9724 305.298 37.9153 306.938 43.0193 307.817C48.1307 308.656 53.2977 309.112 58.4772 309.18C60.8608 309.233 63.2043 309.263 65.5663 309.263C68.3872 309.278 71.182 309.278 74.0107 309.278H850.029C852.802 309.278 855.619 309.278 858.391 309.263C860.742 309.263 863.153 309.233 865.503 309.18C870.673 309.116 875.83 308.66 880.931 307.817C886.051 306.932 891.012 305.292 895.651 302.951C900.268 300.607 904.48 297.537 908.125 293.858C911.798 290.211 914.874 286.009 917.24 281.406C919.569 276.78 921.179 271.827 922.015 266.716C922.876 261.611 923.354 256.45 923.448 251.274C923.478 248.878 923.478 246.558 923.478 244.162C923.54 241.36 923.54 238.573 923.54 235.725V74.2837C923.54 71.4581 923.54 68.6565 923.478 65.8617C923.478 63.4959 923.478 61.1231 923.448 58.7572C923.355 53.581 922.876 48.419 922.016 43.314C921.177 38.2065 919.567 33.2562 917.24 28.6329C912.479 19.3534 904.928 11.7999 895.651 7.03474C891.012 4.69933 886.051 3.06917 880.931 2.19812C875.831 1.34807 870.673 0.892374 865.503 0.835074C863.153 0.797276 860.742 0.751764 858.391 0.737107C855.619 0.72168 852.803 0.722451 850.03 0.722451Z"/><path fill="white" d="M65.6034 302.529C63.253 302.529 60.9597 302.499 58.6277 302.446C53.7973 302.383 48.9781 301.963 44.2097 301.189C39.7634 300.423 35.4562 298.998 31.4301 296.962C27.4408 294.942 23.8022 292.294 20.6538 289.12C17.4595 285.982 14.8001 282.343 12.7809 278.347C10.7398 274.325 9.32715 270.014 8.5923 265.564C7.79899 260.782 7.36989 255.947 7.30871 251.1C7.25934 249.473 7.19531 244.057 7.19531 244.057V65.8608C7.19531 65.8608 7.26319 60.5274 7.30871 58.9599C7.36748 54.121 7.79426 49.2936 8.58536 44.5195C9.32166 40.0572 10.7355 35.7335 12.7779 31.6982C14.7892 27.7047 17.4335 24.063 20.6082 20.9142C23.7796 17.7355 27.4299 15.074 31.4262 13.0267C35.4432 10.9972 39.7423 9.58288 44.1796 8.83115C48.9638 8.04912 53.7998 7.6265 58.647 7.56684L65.6073 7.47119H858.355L865.398 7.56916C870.201 7.62622 874.993 8.04551 879.734 8.82344C884.216 9.5848 888.56 11.0092 892.623 13.0499C900.629 17.1756 907.143 23.7028 911.252 31.7167C913.262 35.7244 914.654 40.013 915.381 44.437C916.181 49.2502 916.629 54.1154 916.721 58.9939C916.744 61.1784 916.744 63.525 916.744 65.8608C916.806 68.7535 916.806 71.5066 916.806 74.2828V235.724C916.806 238.526 916.806 241.261 916.744 244.018C916.744 246.526 916.744 248.824 916.714 251.19C916.623 255.981 916.182 260.76 915.394 265.487C914.675 269.969 913.27 274.314 911.229 278.369C909.196 282.322 906.552 285.93 903.395 289.059C900.244 292.25 896.599 294.914 892.601 296.946C888.549 298.998 884.211 300.428 879.734 301.187C874.966 301.966 870.146 302.387 865.315 302.445C863.008 302.499 860.7 302.527 858.393 302.528L850.031 302.543L65.6034 302.529Z"/><path fill="black" d="M193.285 154.147C193.371 147.452 195.15 140.887 198.455 135.064C201.76 129.241 206.484 124.348 212.188 120.841C208.565 115.666 203.784 111.407 198.227 108.402C192.669 105.397 186.487 103.73 180.173 103.533C166.703 102.119 153.644 111.594 146.779 111.594C139.783 111.594 129.214 103.673 117.833 103.907C110.472 104.145 103.298 106.286 97.0097 110.121C90.7218 113.956 85.5345 119.354 81.9531 125.789C66.4389 152.649 78.0113 192.124 92.8721 213.836C100.307 224.467 108.996 236.343 120.367 235.922C131.493 235.46 135.65 228.826 149.079 228.826C162.386 228.826 166.285 235.922 177.885 235.654C189.825 235.46 197.348 224.976 204.522 214.243C209.864 206.668 213.975 198.295 216.702 189.435C209.765 186.502 203.846 181.591 199.682 175.316C195.518 169.041 193.293 161.678 193.285 154.147ZM171.373 89.2541C177.883 81.4392 181.09 71.3942 180.313 61.2527C170.368 62.2975 161.181 67.051 154.583 74.5661C151.357 78.2373 148.887 82.5083 147.312 87.135C145.738 91.7616 145.091 96.6532 145.408 101.53C150.383 101.581 155.305 100.503 159.802 98.3765C164.3 96.25 168.255 93.1314 171.373 89.2541ZM326.775 210.075H290.262L281.493 235.966H266.027L300.612 140.175H316.68L351.265 235.966H335.536L326.775 210.075ZM294.043 198.127H322.985L308.718 156.108H308.318L294.043 198.127ZM425.955 201.051C425.955 222.753 414.339 236.697 396.81 236.697C392.369 236.929 387.953 235.906 384.067 233.745C380.181 231.584 376.982 228.373 374.836 224.478H374.504V259.07H360.168V166.127H374.045V177.743H374.308C376.553 173.867 379.806 170.672 383.722 168.498C387.637 166.324 392.069 165.252 396.546 165.396C414.271 165.396 425.955 179.409 425.955 201.051ZM411.22 201.051C411.22 186.911 403.914 177.615 392.765 177.615C381.811 177.615 374.444 187.107 374.444 201.05C374.444 215.123 381.811 224.547 392.765 224.547C403.914 224.547 411.22 215.319 411.22 201.051ZM502.827 201.051C502.827 222.753 491.207 236.697 473.677 236.697C469.237 236.929 464.821 235.906 460.934 233.745C457.048 231.584 453.849 228.373 451.703 224.478H451.372V259.07H437.036V166.127H450.912V177.743H451.176C453.42 173.867 456.673 170.672 460.589 168.498C464.505 166.324 468.937 165.252 473.413 165.396C491.139 165.396 502.827 179.409 502.827 201.051ZM488.088 201.051C488.088 186.911 480.781 177.615 469.632 177.615C458.678 177.615 451.312 187.107 451.312 201.05C451.312 215.123 458.678 224.547 469.632 224.547C480.781 224.547 488.088 215.319 488.088 201.051ZM553.623 209.277C554.685 218.776 563.913 225.013 576.523 225.013C588.606 225.013 597.299 218.776 597.299 210.21C597.299 202.775 592.056 198.323 579.642 195.272L567.228 192.282C549.638 188.033 541.472 179.807 541.472 166.458C541.472 149.93 555.875 138.578 576.32 138.578C596.569 138.578 610.445 149.93 610.912 166.458H596.441C595.575 156.899 587.672 151.128 576.124 151.128C564.576 151.128 556.673 156.967 556.673 165.464C556.673 172.236 561.721 176.221 574.068 179.271L584.621 181.863C604.275 186.511 612.433 194.406 612.433 208.417C612.433 226.339 598.166 237.563 575.461 237.563C554.217 237.563 539.874 226.602 538.948 209.276L553.623 209.277ZM643.387 149.6V166.127H656.668V177.48H643.387V215.981C643.387 221.963 646.046 224.75 651.885 224.75C653.461 224.722 655.035 224.611 656.6 224.418V235.703C653.975 236.193 651.307 236.415 648.638 236.365C634.498 236.365 628.983 231.055 628.983 217.51V177.48H618.829V166.127H628.983V149.6H643.387ZM664.352 201.051C664.352 179.076 677.293 165.268 697.475 165.268C717.724 165.268 730.606 179.076 730.606 201.051C730.606 223.085 717.791 236.833 697.474 236.833C677.165 236.833 664.352 223.085 664.352 201.051ZM715.999 201.051C715.999 185.977 709.091 177.08 697.474 177.08C685.859 177.08 678.951 186.044 678.951 201.051C678.951 216.185 685.859 225.013 697.474 225.013C709.091 225.013 715.999 216.185 715.999 201.051ZM742.424 166.127H756.097V178.014H756.429C757.354 174.301 759.529 171.021 762.588 168.723C765.648 166.425 769.405 165.25 773.228 165.396C774.88 165.391 776.527 165.57 778.14 165.931V179.34C776.054 178.703 773.878 178.41 771.698 178.474C769.616 178.389 767.54 178.757 765.612 179.55C763.685 180.344 761.952 181.545 760.533 183.072C759.114 184.598 758.042 186.414 757.391 188.394C756.74 190.374 756.525 192.471 756.76 194.542V235.966H742.424V166.127ZM844.235 215.454C842.306 228.132 829.959 236.833 814.163 236.833C793.846 236.833 781.235 223.221 781.235 201.382C781.235 179.476 793.914 165.268 813.56 165.268C832.882 165.268 845.033 178.542 845.033 199.717V204.629H795.706V205.495C795.479 208.065 795.8 210.655 796.65 213.091C797.5 215.527 798.859 217.755 800.636 219.626C802.413 221.497 804.567 222.969 806.957 223.943C809.346 224.917 811.916 225.372 814.494 225.277C817.882 225.595 821.282 224.81 824.187 223.04C827.093 221.27 829.35 218.609 830.623 215.454H844.235ZM795.774 194.61H830.69C830.819 192.299 830.469 189.986 829.661 187.817C828.854 185.647 827.607 183.668 825.998 182.004C824.39 180.34 822.455 179.026 820.314 178.145C818.174 177.263 815.874 176.834 813.56 176.884C811.226 176.87 808.912 177.319 806.751 178.204C804.591 179.089 802.627 180.393 800.974 182.041C799.32 183.689 798.009 185.648 797.117 187.805C796.225 189.963 795.768 192.275 795.774 194.61ZM292.25 68.0725C295.256 67.8568 298.272 68.3108 301.08 69.4019C303.889 70.4929 306.421 72.1937 308.493 74.3816C310.564 76.5695 312.125 79.19 313.061 82.054C313.998 84.918 314.287 87.9542 313.908 90.9435C313.908 105.648 305.96 114.101 292.25 114.101H275.624V68.0718L292.25 68.0725ZM282.774 107.591H291.452C293.599 107.719 295.748 107.367 297.743 106.56C299.737 105.753 301.526 104.511 302.98 102.926C304.434 101.34 305.516 99.45 306.148 97.3934C306.779 95.3367 306.944 93.1652 306.63 91.0368C306.921 88.9168 306.74 86.7587 306.099 84.7172C305.457 82.6756 304.373 80.8011 302.922 79.228C301.471 77.6549 299.691 76.4222 297.708 75.6181C295.725 74.814 293.588 74.4584 291.452 74.5769H282.774V107.591ZM321.983 96.7173C321.765 94.4347 322.026 92.1315 322.75 89.9557C323.474 87.7798 324.644 85.7792 326.187 84.0823C327.729 82.3853 329.609 81.0295 331.706 80.1017C333.803 79.1739 336.071 78.6946 338.364 78.6946C340.657 78.6946 342.925 79.1739 345.022 80.1017C347.119 81.0295 348.999 82.3853 350.541 84.0823C352.083 85.7792 353.254 87.7798 353.978 89.9557C354.702 92.1315 354.963 94.4347 354.744 96.7173C354.968 99.0027 354.71 101.309 353.988 103.489C353.267 105.669 352.097 107.674 350.554 109.375C349.011 111.075 347.13 112.435 345.03 113.365C342.931 114.295 340.66 114.775 338.364 114.775C336.068 114.775 333.797 114.295 331.697 113.365C329.598 112.435 327.716 111.075 326.174 109.375C324.631 107.674 323.461 105.669 322.739 103.489C322.018 101.309 321.76 99.0027 321.983 96.7173ZM347.694 96.7173C347.694 89.1878 344.311 84.7847 338.375 84.7847C332.416 84.7847 329.065 89.1878 329.065 96.7173C329.065 104.307 332.417 108.676 338.375 108.676C344.311 108.676 347.694 104.277 347.694 96.7173ZM398.294 114.1H391.182L384.003 88.5175H383.461L376.312 114.1H369.269L359.694 79.3641H366.647L372.87 105.869H373.382L380.523 79.3641H387.1L394.241 105.869H394.783L400.975 79.3641H407.831L398.294 114.1ZM415.883 79.3649H422.482V84.8827H422.995C423.864 82.9007 425.329 81.2392 427.187 80.1298C429.046 79.0204 431.204 78.5184 433.361 78.6938C435.051 78.5668 436.748 78.8217 438.326 79.4395C439.904 80.0574 441.323 81.0224 442.478 82.2631C443.632 83.5039 444.493 84.9885 444.996 86.607C445.499 88.2255 445.631 89.9364 445.383 91.613V114.099H438.528V93.3348C438.528 87.753 436.102 84.9768 431.033 84.9768C429.885 84.9234 428.74 85.1188 427.675 85.5495C426.61 85.9802 425.651 86.636 424.863 87.472C424.075 88.3081 423.477 89.3046 423.111 90.3932C422.744 91.4818 422.617 92.6368 422.739 93.7791V114.1H415.883V79.3649ZM456.306 65.8047H463.161V114.1H456.306V65.8047ZM472.691 96.7173C472.472 94.4343 472.733 92.1309 473.457 89.9547C474.181 87.7786 475.352 85.7777 476.895 84.0806C478.437 82.3834 480.317 81.0274 482.415 80.0994C484.512 79.1715 486.78 78.6922 489.073 78.6922C491.367 78.6922 493.635 79.1715 495.732 80.0994C497.83 81.0274 499.71 82.3834 501.252 84.0806C502.795 85.7777 503.966 87.7786 504.69 89.9547C505.414 92.1309 505.675 94.4343 505.456 96.7173C505.678 99.0023 505.42 101.309 504.697 103.488C503.975 105.667 502.805 107.671 501.262 109.371C499.719 111.071 497.838 112.429 495.739 113.359C493.64 114.289 491.369 114.769 489.073 114.769C486.778 114.769 484.507 114.289 482.408 113.359C480.309 112.429 478.428 111.071 476.885 109.371C475.342 107.671 474.172 105.667 473.449 103.488C472.727 101.309 472.469 99.0023 472.691 96.7173ZM498.401 96.7173C498.401 89.1878 495.019 84.7847 489.083 84.7847C483.124 84.7847 479.772 89.1878 479.772 96.7173C479.772 104.307 483.124 108.676 489.083 108.676C495.019 108.676 498.401 104.277 498.401 96.7173ZM512.673 104.277C512.673 98.0241 517.328 94.4194 525.592 93.9072L535 93.3649V90.3665C535 86.6978 532.575 84.6266 527.89 84.6266C524.063 84.6266 521.411 86.0313 520.65 88.4874H514.013C514.714 82.5207 520.326 78.6946 528.206 78.6946C536.914 78.6946 541.826 83.0298 541.826 90.3665V114.1H535.226V109.218H534.684C533.583 110.969 532.037 112.397 530.205 113.355C528.372 114.313 526.317 114.768 524.251 114.672C522.793 114.824 521.319 114.668 519.925 114.215C518.531 113.763 517.246 113.023 516.156 112.043C515.065 111.064 514.191 109.867 513.591 108.529C512.991 107.192 512.678 105.743 512.673 104.277ZM535 101.309V98.4044L526.518 98.9467C521.735 99.2668 519.565 100.894 519.565 103.956C519.565 107.083 522.277 108.902 526.006 108.902C527.099 109.013 528.203 108.903 529.252 108.578C530.301 108.253 531.274 107.721 532.113 107.012C532.952 106.304 533.64 105.434 534.136 104.454C534.632 103.474 534.926 102.404 535 101.309ZM550.836 96.7173C550.836 85.7412 556.478 78.7887 565.254 78.7887C567.424 78.6886 569.579 79.2085 571.465 80.2877C573.352 81.3668 574.892 82.9606 575.906 84.8827H576.418V65.8039H583.272V114.099H576.704V108.611H576.162C575.07 110.52 573.476 112.094 571.553 113.162C569.631 114.23 567.452 114.752 565.254 114.671C556.417 114.671 550.836 107.719 550.836 96.7173ZM557.917 96.7173C557.917 104.084 561.39 108.518 567.197 108.518C572.974 108.518 576.546 104.021 576.546 96.7467C576.546 89.5079 572.937 84.9467 567.197 84.9467C561.427 84.9467 557.917 89.41 557.917 96.7173ZM611.635 96.7173C611.417 94.4347 611.678 92.1315 612.401 89.9557C613.125 87.7798 614.296 85.7792 615.838 84.0823C617.381 82.3853 619.26 81.0295 621.358 80.1017C623.455 79.1739 625.722 78.6946 628.015 78.6946C630.309 78.6946 632.576 79.1739 634.673 80.1017C636.77 81.0295 638.65 82.3853 640.193 84.0823C641.735 85.7792 642.906 87.7798 643.629 89.9557C644.353 92.1315 644.614 94.4347 644.396 96.7173C644.619 99.0027 644.362 101.309 643.64 103.489C642.918 105.669 641.748 107.674 640.206 109.375C638.663 111.075 636.781 112.435 634.682 113.365C632.582 114.295 630.312 114.775 628.015 114.775C625.719 114.775 623.448 114.295 621.349 113.365C619.249 112.435 617.368 111.075 615.825 109.375C614.282 107.674 613.113 105.669 612.391 103.489C611.669 101.309 611.412 99.0027 611.635 96.7173ZM637.345 96.7173C637.345 89.1878 633.963 84.7847 628.027 84.7847C622.068 84.7847 618.716 89.1878 618.716 96.7173C618.716 104.307 622.069 108.676 628.027 108.676C633.963 108.676 637.345 104.277 637.345 96.7173ZM653.594 79.3649H660.193V84.8827H660.705C661.574 82.9007 663.04 81.2392 664.898 80.1298C666.756 79.0204 668.914 78.5184 671.071 78.6938C672.761 78.5668 674.458 78.8217 676.037 79.4395C677.615 80.0574 679.034 81.0224 680.189 82.2631C681.343 83.5039 682.204 84.9885 682.707 86.607C683.21 88.2255 683.342 89.9364 683.094 91.613V114.099H676.239V93.3348C676.239 87.753 673.813 84.9768 668.743 84.9768C667.596 84.9234 666.45 85.1188 665.385 85.5495C664.321 85.9802 663.361 86.636 662.574 87.472C661.786 88.3081 661.188 89.3046 660.821 90.3932C660.455 91.4818 660.328 92.6368 660.449 93.7791V114.1H653.595L653.594 79.3649ZM721.83 70.7169V79.5231H729.355V85.2969H721.83V103.158C721.83 106.796 723.328 108.39 726.741 108.39C727.614 108.387 728.487 108.334 729.354 108.231V113.942C728.123 114.162 726.876 114.279 725.626 114.292C718.003 114.292 714.967 111.61 714.967 104.913V85.2969H709.453V79.5223H714.967V70.7176L721.83 70.7169ZM738.718 65.8047H745.514V84.9467H746.056C746.967 82.9462 748.473 81.2754 750.368 80.1618C752.263 79.0482 754.456 78.5461 756.647 78.7239C758.328 78.6324 760.009 78.9131 761.57 79.546C763.13 80.1789 764.532 81.1484 765.674 82.3853C766.817 83.6222 767.672 85.096 768.18 86.7017C768.687 88.3073 768.834 90.0051 768.61 91.674V114.1H761.747V93.3649C761.747 87.8163 759.163 85.0069 754.32 85.0069C753.142 84.9103 751.956 85.0723 750.847 85.4816C749.738 85.8909 748.732 86.5375 747.899 87.3763C747.066 88.2151 746.426 89.2257 746.025 90.3375C745.623 91.4494 745.469 92.6355 745.574 93.8131V114.1H738.718V65.8047ZM808.581 104.721C807.65 107.895 805.632 110.641 802.88 112.479C800.129 114.316 796.819 115.127 793.529 114.77C791.241 114.831 788.967 114.392 786.865 113.486C784.763 112.579 782.883 111.226 781.356 109.52C779.83 107.814 778.693 105.797 778.024 103.607C777.355 101.418 777.171 99.1093 777.484 96.8415C777.179 94.5667 777.366 92.253 778.034 90.057C778.701 87.8609 779.832 85.8339 781.35 84.113C782.869 82.3922 784.74 81.0178 786.836 80.0828C788.932 79.1478 791.204 78.6741 793.499 78.6938C803.164 78.6938 808.995 85.2969 808.995 96.2044V98.5964H784.467V98.9806C784.36 100.255 784.52 101.538 784.938 102.747C785.355 103.957 786.021 105.065 786.892 106.002C787.763 106.939 788.82 107.683 789.995 108.188C791.171 108.692 792.439 108.946 793.718 108.932C795.358 109.128 797.019 108.833 798.49 108.083C799.962 107.334 801.177 106.163 801.982 104.721H808.581ZM784.467 93.5269H802.012C802.098 92.3611 801.94 91.1901 801.547 90.0892C801.153 88.9883 800.534 87.9819 799.729 87.1344C798.924 86.287 797.95 85.6174 796.871 85.1686C795.792 84.7199 794.63 84.5018 793.462 84.5286C792.276 84.5137 791.099 84.7363 790.001 85.1832C788.903 85.6302 787.905 86.2925 787.067 87.1311C786.229 87.9697 785.567 88.9677 785.12 90.0661C784.674 91.1645 784.452 92.3413 784.467 93.5269Z"/></g><defs><clipPath id="clip0_1886_13920"><rect fill="white" height="310" width="924"/></clipPath></defs></svg>