<svg viewBox="0 0 740 740" xmlns="http://www.w3.org/2000/svg" class="footerLogo" style="width: 144px; height: 144px;"><g data-name="Layer 2"><g data-name="Layer 1" fill="currentColor"><path d="M727.1 12.9v714.2H12.9V12.9h714.2M740 0H0v740h740V0z" class="cls-1"/><path d="M152.07 511.36c4.38 0 6.8 2.91 6.8 6.31 0 2.92-2.91 6.32-6.31 6.32h-41.78v132.63c0 3.4-3.4 6.31-6.8 6.31a6.54 6.54 0 0 1-6.8-6.31V524H54.91a6.32 6.32 0 0 1 0-12.63l97.16-.01zM192.4 518.16a6.55 6.55 0 0 1 6.8-6.32 6.65 6.65 0 0 1 6.8 6.81v137.48a6.64 6.64 0 0 1-6.8 6.8 6.54 6.54 0 0 1-6.8-6.31V518.16zM264.78 590.55v65.09a6.64 6.64 0 0 1-6.8 6.81 6.55 6.55 0 0 1-6.8-6.32V521.56c0-5.83 4.37-10.2 10.69-10.2h73.36c4.85 0 7.28 2.91 7.28 6.31s-2.43 6.32-6.8 6.32h-70.93v53.44h58.3c4.37 0 7.29 2.91 7.29 6.31 0 3.89-2.92 6.32-6.8 6.32l-58.79.49zM378 518.16a6.55 6.55 0 0 1 6.8-6.32 6.65 6.65 0 0 1 6.8 6.81v137.48a6.64 6.64 0 0 1-6.8 6.8 6.54 6.54 0 0 1-6.8-6.31V518.16zM531.49 518.16a6.82 6.82 0 0 1 13.61 0v128.25c0 9.23-7.29 16.52-17 16.52a17.29 17.29 0 0 1-15.54-9.71l-57.34-125.34c-1-2.43-2.43-3.89-4.37-3.4-1.94 0-2.92 1.45-2.92 4.37v127.77a6.82 6.82 0 0 1-13.6 0V528.36c0-9.23 7.29-16.52 17-16.52a17.3 17.3 0 0 1 15.55 9.72l57.33 125.34c1 2.43 2.43 3.89 4.37 3.4q2.91 0 2.91-4.37V518.16z" class="cls-1"/></g></g></svg>